<?xml version="1.0" encoding="utf-8"?>
<!-- Generator: Adobe Illustrator 16.0.0, SVG Export Plug-In . SVG Version: 6.00 Build 0)  -->
<!DOCTYPE svg PUBLIC "-//W3C//DTD SVG 1.1//EN" "http://www.w3.org/Graphics/SVG/1.1/DTD/svg11.dtd">
<svg version="1.1" id="Layer_1" xmlns="http://www.w3.org/2000/svg" xmlns:xlink="http://www.w3.org/1999/xlink" x="0px" y="0px"
	 width="59.015px" height="82px" viewBox="0 0 59.015 82" enable-background="new 0 0 59.015 82" xml:space="preserve">
<g>
	<path fill-rule="evenodd" clip-rule="evenodd" fill="#0A0707" d="M19.022,47.033c0.105,0.769,0.43,1.47,0.681,2.192
		c1.438,4.136,2.587,8.359,3.854,12.547c0.112,0.373,0.233,0.743,0.462,1.096c-0.037-0.824-0.082-1.647-0.108-2.472
		c-0.256-7.944,0.97-15.682,3.28-23.264c0.756-2.483,1.54-4.958,2.339-7.427c0.14-0.431,0.146-0.798-0.035-1.207
		c-0.229-0.52-0.398-1.066-0.625-1.587c-0.176-0.405-0.159-0.764,0.123-1.106c0.832-0.131,1.662-0.102,2.492,0.018l0.035,0.021
		l0.04-0.01c0.117,0.015,0.235,0.03,0.353,0.045c0.14,0.143,0.323,0.112,0.495,0.126c0.167,0.19,0.423,0.225,0.62,0.35
		c0.584,0.369,1.31,0.671,1.043,1.602c-0.929,0.466-1.851,0.947-2.79,1.391c-0.303,0.143-0.443,0.363-0.542,0.651
		c-3.613,10.531-5.862,21.281-5.216,32.495c0.074,1.285,0.179,2.568,0.271,3.856c0.318,0.008,0.294-0.256,0.368-0.407
		c0.609-1.248,1.396-2.389,2.587-3.1c2.886-1.721,4.081-4.396,4.49-7.559c0.157-1.221,0.448-2.43,0.348-3.676
		c0.432-2.934,0.257-5.871,0.025-8.807c-0.097-1.231-0.259-2.457-0.387-3.687c-0.043-0.414,0.157-0.696,0.56-0.732
		c0.364-0.033,0.593,0.2,0.656,0.571c0.012,0.073,0.033,0.145,0.044,0.218c0.433,3.116,0.666,6.246,0.621,9.392
		c-0.01,0.665-0.127,1.329-0.009,1.994c-0.325,2.377-0.48,4.777-0.976,7.132c-0.08,0.382-0.147,0.768-0.215,1.124
		c0.137,0.112,0.226,0.069,0.304,0.016c2.262-1.563,4.479-3.186,6.487-5.074c0.122-0.114,0.204-0.271,0.305-0.409
		c0.284-0.024,0.4-0.273,0.568-0.442c3.948-3.966,6.495-8.698,7.729-14.149c0.273-1.208,0.505-2.422,0.673-3.648
		c0.058-0.422,0.247-0.72,0.721-0.658c0.475,0.063,0.568,0.413,0.529,0.827c-0.007,0.074-0.009,0.148-0.019,0.222
		c-0.84,5.893-2.806,11.322-6.556,16.028c-0.396,0.496-0.92,0.897-1.165,1.51c-0.096,0.098-0.19,0.194-0.286,0.291
		c-0.102-0.004-0.15,0.049-0.156,0.146c-3.613,3.727-7.971,6.503-12.14,9.521c-0.985,0.714-1.899,1.512-2.689,2.444
		c-1.457,1.72-1.846,3.646-1.026,5.75c0.878,2.257,2.225,4.249,3.685,6.163c0.495,0.649,1.042,1.259,1.578,1.875
		c0.541,0.622,0.597,1.073,0.156,1.486c-0.457,0.429-1.039,0.377-1.558-0.176c-1.925-2.052-3.537-4.333-4.903-6.789
		c-2.485-4.468-4.006-9.303-5.404-14.187c-1.143-3.994-2.194-8.018-3.575-11.94c-0.113-0.322-0.167-0.679-0.437-0.931
		c0.069-0.235-0.045-0.437-0.12-0.644c-2.583-7.042-6.317-13.367-11.631-18.712c-0.35-0.353-0.938-0.739-0.393-1.285
		c0.591-0.592,0.971,0.06,1.33,0.421c5.643,5.694,9.823,12.329,12.699,19.799C18.716,46.539,18.733,46.863,19.022,47.033z"/>
	<path fill-rule="evenodd" clip-rule="evenodd" fill="#567CB2" d="M34.071,27.958c0.267-0.931-0.459-1.233-1.043-1.602
		c-0.197-0.125-0.453-0.16-0.62-0.35c0.583-0.142,0.977-0.579,1.371-0.964c2.069-2.021,4.112-4.07,6.214-6.06
		c2.262-2.143,4.471-4.342,6.689-6.53c0.853-0.841,0.918-1.678,0.193-2.487c-0.848-0.945-1.822-1.699-3.02-2.21
		c-0.896-0.382-1.816-0.592-2.744-0.82c-0.005-0.057-0.01-0.114-0.015-0.171c0.592-1.122,1.586-1.487,2.78-1.5
		c1.296-0.014,2.497,0.353,3.642,0.915c3.712,1.822,6.754,4.476,9.393,7.623c0.291,0.347,0.494,0.744,0.647,1.164
		c0.426,1.166,0.074,2.098-1.023,2.685c-0.304,0.163-0.628,0.304-0.959,0.397c-3.63,1.012-6.6,3.109-9.326,5.62
		c-3.193,2.939-6.897,4.594-11.31,4.428C34.646,28.083,34.342,28.12,34.071,27.958z"/>
	<path fill-rule="evenodd" clip-rule="evenodd" fill="#3B5998" d="M19.022,47.033c-0.29-0.17-0.306-0.494-0.409-0.761
		c-2.876-7.471-7.056-14.105-12.699-19.799c-0.358-0.362-0.738-1.014-1.33-0.421c-0.546,0.546,0.042,0.933,0.393,1.285
		c5.314,5.345,9.048,11.67,11.631,18.712c0.075,0.207,0.189,0.408,0.12,0.644c-1.532-0.56-2.836-1.513-4.101-2.496
		C6.167,39.17,2.445,32.573,1.459,24.447c-0.155-1.277-0.198-2.566-0.171-3.858c0.012-0.576,0.109-0.75,0.708-0.483
		c3.509,1.559,6.616,3.691,9.248,6.485c3.978,4.222,6.493,9.192,7.494,14.916c0.291,1.664,0.434,3.339,0.389,5.028
		C19.123,46.702,19.059,46.867,19.022,47.033z"/>
	<path fill-rule="evenodd" clip-rule="evenodd" fill="#E1EBFF" d="M43.483,53.037c0.245-0.612,0.77-1.014,1.165-1.51
		c3.75-4.706,5.716-10.135,6.556-16.028c0.01-0.074,0.012-0.148,0.019-0.222c0.039-0.414-0.055-0.764-0.529-0.827
		c-0.474-0.063-0.663,0.236-0.721,0.658c-0.168,1.227-0.399,2.441-0.673,3.648c-1.233,5.451-3.78,10.184-7.729,14.149
		c-0.168,0.169-0.284,0.418-0.568,0.442c-0.221-2.625-0.173-5.236,0.41-7.819c1.022-4.533,3.156-8.463,6.442-11.75
		c1.316-1.316,2.793-2.442,4.392-3.405c0.444-0.268,0.675-0.301,0.762,0.333c0.707,5.137-0.101,10.009-2.546,14.587
		c-1.571,2.942-3.666,5.457-6.333,7.479C43.94,52.918,43.777,53.143,43.483,53.037z"/>
	<path fill-rule="evenodd" clip-rule="evenodd" fill="#3B5998" d="M21.696,10.184c-0.029-0.068-0.059-0.137-0.088-0.206
		c0.11-0.835-0.11-1.646-0.214-2.461c-0.126-0.985-0.328-1.961-0.497-2.941c1.301-0.445,2.499,0.03,3.649,0.51
		c2.409,1.003,4.875,1.34,7.462,1.015c0.743-0.093,1.53-0.169,2.271,0.133c-0.072,0.625-0.342,1.18-0.633,1.724
		c-0.662,1.239-1.501,2.375-2.057,3.681c-1.161,2.732-1.926,5.6-2.945,8.38c-0.38,1.038-0.75,2.095-1.65,2.837
		c-0.447-0.497-0.551-1.142-0.741-1.747c-0.642-2.049-0.832-4.208-1.496-6.25C24.163,13.026,23.333,11.338,21.696,10.184z"/>
	<path fill-rule="evenodd" clip-rule="evenodd" fill="#567CB2" d="M26.995,22.854c0.9-0.742,1.27-1.799,1.65-2.837
		c1.019-2.78,1.784-5.647,2.945-8.38c0.556-1.306,1.395-2.441,2.057-3.681c0.291-0.543,0.561-1.098,0.633-1.724
		c0.002-0.066,0.004-0.132,0.005-0.197c2.281,0.153,4.556,0.359,6.813,0.729c0.005,0.057,0.01,0.114,0.015,0.171
		c-0.29,0.04-0.379,0.302-0.521,0.493c-1.915,2.583-3.652,5.284-5.229,8.085c-1.214,2.156-2.331,4.363-3.031,6.75
		c-0.345,1.176-0.714,2.362-0.419,3.618c-0.117-0.015-0.235-0.03-0.353-0.045c-0.014-0.074-0.037-0.09-0.075-0.012
		c-0.83-0.12-1.66-0.149-2.492-0.018c-0.759-0.866-1.501-1.743-2.024-2.781C26.978,22.968,26.986,22.911,26.995,22.854z"/>
	<path fill-rule="evenodd" clip-rule="evenodd" fill="#567CB2" d="M35.097,50.561c-0.118-0.665-0.001-1.329,0.009-1.994
		c0.045-3.146-0.188-6.276-0.621-9.392c-0.011-0.073-0.032-0.145-0.044-0.218c-0.063-0.371-0.292-0.604-0.656-0.571
		c-0.402,0.037-0.603,0.318-0.56,0.732c0.128,1.229,0.29,2.455,0.387,3.687c0.231,2.936,0.406,5.873-0.025,8.807
		c-1.394-1.896-2.149-4.049-2.51-6.349c-0.614-3.92,0.149-7.573,2.187-10.971c0.236-0.394,0.398-0.583,0.738-0.061
		c3.317,5.114,3.756,10.456,1.31,16.035C35.263,50.374,35.169,50.463,35.097,50.561z"/>
	<path fill-rule="evenodd" clip-rule="evenodd" fill="#E1EBFF" d="M34.285,6.036c-0.001,0.065-0.003,0.131-0.005,0.197
		c-0.741-0.302-1.528-0.227-2.271-0.133c-2.587,0.325-5.053-0.011-7.462-1.015c-1.15-0.479-2.348-0.955-3.649-0.51
		c-0.096-0.003-0.193-0.006-0.289-0.01c0.06-0.513-0.235-0.895-0.485-1.29c-0.313-0.493-0.621-1.003-0.305-1.588
		C20.144,1.087,20.764,1.009,21.366,1c1.614-0.024,3.109,0.536,4.623,0.991c1.208,0.363,2.411,0.749,3.606,1.151
		c0.859,0.289,1.771,0.173,2.634,0.396C33.458,3.855,34.518,4.436,34.285,6.036z"/>
	<path fill-rule="evenodd" clip-rule="evenodd" fill="#E1EBFF" d="M26.995,22.854c-0.009,0.057-0.017,0.114-0.026,0.171
		c-1.65,0.726-2.843,0.327-3.696-1.27c-0.747-1.399-1-2.942-1.14-4.49c-0.203-2.259-0.322-4.526-0.474-6.79
		c-0.007-0.096,0.023-0.195,0.036-0.292c1.636,1.154,2.467,2.842,3.063,4.673c0.664,2.042,0.854,4.201,1.496,6.25
		C26.444,21.712,26.548,22.357,26.995,22.854z"/>
	<path fill-rule="evenodd" clip-rule="evenodd" fill="#567CB2" d="M20.608,4.565c0.096,0.003,0.193,0.007,0.289,0.01
		c0.169,0.98,0.371,1.956,0.497,2.941c0.104,0.816,0.324,1.626,0.214,2.461c-0.589-0.364-1.179-0.726-1.766-1.092
		c-0.792-0.495-1.441-1.117-1.376-2.129c0.066-1.033,0.784-1.608,1.652-2.021C20.274,4.661,20.445,4.621,20.608,4.565z"/>
	<path fill-rule="evenodd" clip-rule="evenodd" fill="#C4A081" d="M43.041,53.475c0.006-0.098,0.055-0.15,0.156-0.146
		C43.202,53.437,43.144,53.48,43.041,53.475z"/>
	<path fill-rule="evenodd" clip-rule="evenodd" fill="#3B5998" d="M31.913,25.881c-0.295-1.256,0.074-2.441,0.419-3.618
		c0.7-2.387,1.817-4.594,3.031-6.75c1.576-2.801,3.313-5.501,5.229-8.085c0.142-0.191,0.23-0.453,0.521-0.493
		c0.928,0.228,1.849,0.438,2.744,0.82c1.197,0.511,2.172,1.265,3.02,2.21c0.725,0.809,0.659,1.646-0.193,2.487
		c-2.219,2.188-4.428,4.387-6.689,6.53c-2.102,1.99-4.145,4.039-6.214,6.06c-0.395,0.385-0.788,0.822-1.371,0.964
		C32.236,25.993,32.052,26.023,31.913,25.881z"/>
	<path fill-rule="evenodd" clip-rule="evenodd" fill="#5F5F5F" d="M31.485,25.824c0.038-0.079,0.062-0.063,0.075,0.012l-0.04,0.01
		L31.485,25.824z"/>
</g>
</svg>
